<?xml version="1.0" standalone="no"?>
<!DOCTYPE svg PUBLIC "-//W3C//DTD SVG 20010904//EN"
 "http://www.w3.org/TR/2001/REC-SVG-20010904/DTD/svg10.dtd">
<svg version="1.0" xmlns="http://www.w3.org/2000/svg"
 width="1080.000000pt" height="1080.000000pt" viewBox="0 0 1080.000000 1080.000000"
 preserveAspectRatio="xMidYMid meet">

<g transform="translate(0.000000,1080.000000) scale(0.100000,-0.100000)"
fill="#000000" stroke="none">
<path d="M5172 8169 c-788 -57 -1493 -339 -1914 -766 -156 -157 -248 -289
-319 -453 -266 -616 27 -1273 758 -1700 907 -531 2254 -584 3256 -130 592 269
976 678 1084 1153 22 99 22 345 0 444 -65 287 -214 526 -472 761 -536 486
-1473 757 -2393 691z m557 -39 c473 -36 886 -141 1256 -319 1064 -512 1346
-1435 663 -2166 -267 -285 -704 -528 -1188 -661 -738 -203 -1564 -174 -2275
81 -166 59 -441 194 -570 280 -409 273 -656 607 -719 974 -153 892 858 1702
2259 1810 151 12 423 12 574 1z"/>
<path d="M4440 7586 l0 -55 43 -5 c53 -7 233 -26 247 -26 7 0 10 -133 10 -410
l0 -410 140 0 140 0 0 405 c0 317 3 405 13 406 97 4 278 -5 337 -17 254 -53
384 -220 367 -475 -9 -138 -87 -258 -206 -319 -50 -25 -157 -50 -218 -50 -24
0 -43 -2 -43 -5 0 -3 17 -24 38 -46 127 -138 222 -314 400 -742 6 -14 26 23
81 147 85 191 86 170 -9 316 -57 85 -171 203 -209 215 -34 11 -24 19 54 43
152 49 307 166 367 278 36 66 58 162 57 249 -1 230 -140 413 -371 491 -151 51
-216 57 -745 61 l-493 5 0 -56z"/>
<path d="M6332 7128 c-92 -242 -197 -504 -276 -691 -53 -123 -151 -357 -219
-521 -68 -163 -128 -297 -133 -298 -5 0 -58 119 -119 264 -62 144 -130 299
-152 344 -89 174 -242 372 -310 401 -23 9 -83 13 -208 13 l-175 0 0 -65 0 -65
158 0 159 0 264 -647 264 -648 46 -3 46 -3 113 268 c306 727 461 1100 551
1333 114 294 117 300 210 300 l59 0 0 35 0 35 -129 0 -130 0 -19 -52z"/>
<path d="M4738 6048 l-3 -413 -147 -14 -148 -14 0 -53 0 -54 461 0 460 0 -3
53 -3 52 -165 15 -165 15 -3 413 -2 412 -140 0 -140 0 -2 -412z"/>
<path d="M5936 5687 c-42 -96 -76 -177 -76 -180 0 -4 122 -7 270 -7 l270 0 0
54 0 53 -132 14 -132 14 -56 107 c-31 59 -59 110 -62 113 -3 3 -39 -73 -82
-168z"/>
<path d="M6342 4403 c-11 -26 -102 -246 -202 -488 -100 -242 -188 -450 -196
-462 -9 -15 -29 -25 -54 -29 -30 -5 -40 -11 -40 -25 0 -18 10 -19 135 -19 125
0 135 1 135 19 0 14 -10 20 -41 24 -23 3 -46 10 -52 16 -13 13 2 65 50 179
l36 82 224 -2 225 -3 34 -85 c41 -100 54 -153 44 -170 -4 -7 -31 -15 -59 -18
-41 -4 -51 -8 -51 -23 0 -18 11 -19 195 -19 185 0 195 1 195 19 0 13 -10 21
-34 25 -34 7 -54 23 -77 66 -7 14 -99 234 -204 490 -178 433 -193 465 -216
468 -23 3 -29 -4 -47 -45z m93 -403 c48 -118 90 -221 92 -227 4 -10 -38 -13
-191 -13 -108 0 -196 3 -196 6 0 3 39 99 86 212 47 114 90 218 95 231 6 14 13
20 18 15 5 -5 48 -106 96 -224z"/>
<path d="M2830 4411 c0 -16 9 -21 45 -26 86 -13 80 24 80 -480 0 -505 6 -468
-81 -481 -34 -5 -44 -11 -44 -25 0 -18 11 -19 195 -19 185 0 195 1 195 19 0
14 -9 21 -38 26 -69 11 -67 4 -70 220 l-3 195 60 0 59 0 140 -227 139 -228
136 -3 c132 -2 137 -2 137 18 0 15 -7 20 -29 20 -38 0 -81 16 -98 38 -25 31
-273 404 -273 411 0 4 19 16 43 28 65 32 103 69 133 129 22 46 27 69 27 137 1
142 -55 217 -188 252 -46 12 -117 15 -312 15 -244 0 -253 -1 -253 -19z m505
-53 c71 -38 95 -89 95 -203 0 -98 -15 -143 -64 -191 -47 -48 -119 -74 -203
-74 l-53 0 0 246 0 247 98 -5 c60 -3 108 -11 127 -20z"/>
<path d="M3890 4411 c0 -16 9 -21 45 -26 86 -13 80 22 83 -467 1 -336 -1 -439
-11 -458 -10 -20 -24 -27 -65 -34 -41 -7 -52 -13 -52 -27 0 -18 16 -19 375
-19 l375 0 0 95 0 95 -39 0 -38 0 -6 -52 c-4 -28 -11 -56 -17 -62 -15 -15
-274 -21 -321 -7 -24 7 -39 19 -43 34 -3 12 -6 111 -6 220 l0 197 124 0 c138
0 156 -7 156 -61 0 -26 3 -29 30 -29 l30 0 0 120 0 120 -30 0 c-27 0 -30 -3
-30 -33 0 -53 -11 -57 -152 -57 l-128 0 0 205 0 205 158 0 c86 0 163 -4 171
-9 8 -5 16 -32 19 -65 l4 -56 39 0 39 0 0 95 0 95 -355 0 c-345 0 -355 -1
-355 -19z"/>
<path d="M4760 4411 c0 -14 10 -21 35 -25 45 -9 44 -6 240 -491 238 -592 213
-537 243 -533 23 3 37 35 213 497 104 271 193 499 200 507 6 7 26 16 45 20 24
4 34 12 34 25 0 18 -9 19 -135 19 -128 0 -135 -1 -135 -20 0 -15 7 -20 29 -20
49 0 81 -17 81 -42 -1 -33 -273 -744 -285 -744 -12 -1 -305 722 -305 752 0 23
31 34 91 34 22 0 29 5 29 20 0 19 -7 20 -190 20 -180 0 -190 -1 -190 -19z"/>
<path d="M7030 4410 c0 -16 9 -21 50 -26 84 -11 80 12 80 -479 0 -491 4 -468
-80 -480 -40 -6 -50 -11 -50 -26 0 -18 9 -19 165 -19 156 0 165 1 165 19 0 15
-10 20 -50 26 -83 11 -81 -4 -78 431 l3 379 316 -435 c266 -367 319 -435 342
-438 l26 -3 3 496 c3 560 -3 517 83 530 36 5 45 10 45 26 0 18 -8 19 -165 19
-156 0 -165 -1 -165 -19 0 -15 10 -20 50 -26 84 -12 80 10 79 -398 0 -314 -2
-359 -14 -342 -8 11 -138 192 -290 403 l-276 382 -119 0 c-113 0 -120 -1 -120
-20z"/>
<path d="M7210 3223 l-22 -28 22 -3 c15 -3 33 7 54 27 l31 31 -32 0 c-22 0
-38 -8 -53 -27z"/>
<path d="M2914 3166 c-118 -52 -101 -226 24 -243 66 -9 92 2 92 38 0 26 -2 29
-19 19 -49 -26 -111 9 -111 64 0 61 49 97 104 76 24 -9 26 -7 26 19 0 21 -6
30 -22 35 -34 9 -60 7 -94 -8z"/>
<path d="M3156 3170 c-41 -13 -65 -38 -77 -82 -29 -108 56 -191 162 -159 106
32 107 211 2 240 -43 12 -48 12 -87 1z m75 -59 c45 -37 21 -141 -33 -141 -57
0 -81 101 -32 139 33 26 36 26 65 2z"/>
<path d="M3713 3165 c-57 -24 -58 -86 -3 -122 65 -41 73 -49 66 -61 -9 -15
-72 -16 -81 -2 -12 20 -25 10 -25 -20 0 -25 4 -30 35 -36 78 -14 135 16 135
72 0 34 -16 51 -80 87 -27 14 -30 20 -20 32 15 17 43 19 71 5 17 -9 19 -7 19
18 0 22 -6 31 -22 36 -35 9 -60 7 -95 -9z"/>
<path d="M4656 3170 c-41 -13 -65 -38 -77 -82 -29 -108 56 -191 162 -159 106
32 107 211 2 240 -43 12 -48 12 -87 1z m75 -59 c45 -37 21 -141 -33 -141 -57
0 -81 101 -32 139 33 26 36 26 65 2z"/>
<path d="M6206 3170 c-41 -13 -65 -38 -77 -82 -29 -108 56 -191 162 -159 106
32 107 211 2 240 -43 12 -48 12 -87 1z m75 -59 c45 -37 21 -141 -33 -141 -57
0 -81 101 -32 139 33 26 36 26 65 2z"/>
<path d="M3380 3050 l0 -120 30 0 29 0 3 71 3 71 49 -71 c44 -65 51 -71 82
-71 l34 0 0 120 0 120 -30 0 -29 0 -3 -72 -3 -73 -49 73 c-44 65 -52 72 -82
72 l-34 0 0 -120z"/>
<path d="M3890 3073 c1 -61 5 -104 13 -114 28 -37 88 -49 141 -29 40 15 56 58
56 155 l0 85 -30 0 -30 0 0 -78 c0 -105 -31 -150 -74 -106 -12 12 -16 36 -16
100 l0 84 -30 0 -30 0 0 -97z"/>
<path d="M4170 3050 l0 -120 75 0 c68 0 75 2 75 20 0 17 -7 20 -45 20 l-45 0
0 100 0 100 -30 0 -30 0 0 -120z"/>
<path d="M4350 3145 c0 -22 4 -25 35 -25 l35 0 0 -95 0 -95 30 0 30 0 0 95 0
95 35 0 c31 0 35 3 35 25 l0 25 -100 0 -100 0 0 -25z"/>
<path d="M4880 3050 l0 -120 30 0 c29 0 30 2 30 45 0 25 4 45 10 45 5 0 23
-20 40 -45 27 -39 36 -45 66 -45 39 0 39 -2 -7 66 -28 41 -28 42 -9 59 12 11
20 31 20 51 0 48 -29 64 -112 64 l-68 0 0 -120z m113 58 c13 -20 -6 -48 -34
-48 -15 0 -19 7 -19 36 0 31 3 35 21 32 12 -2 27 -10 32 -20z"/>
<path d="M5110 3150 c0 -11 5 -20 10 -20 6 0 10 -33 10 -80 0 -47 -4 -80 -10
-80 -5 0 -10 -9 -10 -20 0 -17 7 -20 50 -20 43 0 50 3 50 20 0 11 -4 20 -10
20 -6 0 -10 33 -10 80 0 47 4 80 10 80 6 0 10 9 10 20 0 17 -7 20 -50 20 -43
0 -50 -3 -50 -20z"/>
<path d="M5281 3058 c-22 -62 -41 -116 -41 -120 0 -5 14 -8 30 -8 23 0 33 6
40 25 8 21 16 25 50 25 34 0 41 -4 46 -25 5 -21 12 -25 41 -25 24 0 34 4 31
13 -3 6 -22 60 -43 120 l-38 107 -37 0 -37 0 -42 -112z m95 -6 c6 -27 4 -32
-13 -32 -29 0 -32 7 -20 46 12 39 24 34 33 -14z"/>
<path d="M5630 3150 c0 -11 5 -20 10 -20 6 0 10 -33 10 -80 0 -47 -4 -80 -10
-80 -5 0 -10 -9 -10 -20 0 -17 7 -20 50 -20 43 0 50 3 50 20 0 11 -4 20 -10
20 -6 0 -10 33 -10 80 0 47 4 80 10 80 6 0 10 9 10 20 0 17 -7 20 -50 20 -43
0 -50 -3 -50 -20z"/>
<path d="M5780 3050 l0 -120 30 0 c29 0 29 0 32 68 l3 67 24 -68 c22 -66 24
-68 54 -65 28 3 32 9 51 65 12 34 24 65 29 69 4 4 7 -25 7 -64 l0 -72 30 0 30
0 0 120 0 120 -44 0 -44 0 -27 -75 c-15 -41 -29 -75 -30 -75 -2 0 -15 34 -30
75 l-28 75 -43 0 -44 0 0 -120z"/>
<path d="M6420 3050 l0 -120 75 0 c62 0 79 4 95 20 27 27 26 75 -2 94 -20 15
-21 16 -5 34 9 10 17 28 17 40 0 35 -37 52 -112 52 l-68 0 0 -120z m109 66 c9
-11 8 -18 -4 -30 -26 -26 -45 -20 -45 14 0 23 5 30 19 30 10 0 24 -6 30 -14z
m11 -101 c17 -20 -3 -45 -36 -45 -20 0 -24 5 -24 30 0 25 4 30 24 30 13 0 29
-7 36 -15z"/>
<path d="M6650 3150 c0 -11 5 -20 10 -20 6 0 10 -33 10 -80 0 -47 -4 -80 -10
-80 -5 0 -10 -9 -10 -20 0 -17 7 -20 50 -20 43 0 50 3 50 20 0 11 -4 20 -10
20 -6 0 -10 33 -10 80 0 47 4 80 10 80 6 0 10 9 10 20 0 17 -7 20 -50 20 -43
0 -50 -3 -50 -20z"/>
<path d="M6800 3050 l0 -120 75 0 c68 0 75 2 75 20 0 17 -7 20 -45 20 l-45 0
0 100 0 100 -30 0 -30 0 0 -120z"/>
<path d="M6980 3150 c0 -11 5 -20 10 -20 6 0 10 -33 10 -80 0 -47 -4 -80 -10
-80 -5 0 -10 -9 -10 -20 0 -17 7 -20 50 -20 43 0 50 3 50 20 0 11 -4 20 -10
20 -6 0 -10 33 -10 80 0 47 4 80 10 80 6 0 10 9 10 20 0 17 -7 20 -50 20 -43
0 -50 -3 -50 -20z"/>
<path d="M7151 3058 c-22 -62 -41 -116 -41 -120 0 -5 14 -8 30 -8 23 0 33 6
40 25 8 21 16 25 50 25 34 0 41 -4 46 -25 5 -21 12 -25 41 -25 24 0 34 4 31
13 -3 6 -22 60 -43 120 l-38 107 -37 0 -37 0 -42 -112z m95 -6 c6 -27 4 -32
-13 -32 -29 0 -32 7 -20 46 12 39 24 34 33 -14z"/>
<path d="M7400 3050 l0 -120 30 0 c29 0 30 2 30 45 0 25 4 45 10 45 5 0 23
-20 40 -45 27 -39 36 -45 66 -45 39 0 39 -2 -7 66 -28 41 -28 42 -9 59 12 11
20 31 20 51 0 48 -29 64 -112 64 l-68 0 0 -120z m113 58 c13 -20 -6 -48 -34
-48 -15 0 -19 7 -19 36 0 31 3 35 21 32 12 -2 27 -10 32 -20z"/>
<path d="M7630 3150 c0 -11 5 -20 10 -20 6 0 10 -33 10 -80 0 -47 -4 -80 -10
-80 -5 0 -10 -9 -10 -20 0 -17 7 -20 50 -20 43 0 50 3 50 20 0 11 -4 20 -10
20 -6 0 -10 33 -10 80 0 47 4 80 10 80 6 0 10 9 10 20 0 17 -7 20 -50 20 -43
0 -50 -3 -50 -20z"/>
<path d="M7801 3058 c-22 -62 -41 -116 -41 -120 0 -5 14 -8 30 -8 23 0 33 6
40 25 8 21 16 25 50 25 34 0 41 -4 46 -25 5 -21 12 -25 41 -25 24 0 34 4 31
13 -3 6 -22 60 -43 120 l-38 107 -37 0 -37 0 -42 -112z m95 -6 c6 -27 4 -32
-13 -32 -29 0 -32 7 -20 46 12 39 24 34 33 -14z"/>
</g>
</svg>
